<svg version="1.1" id="Layer_1" xmlns="http://www.w3.org/2000/svg" xmlns:xlink="http://www.w3.org/1999/xlink" x="0px" y="0px" enable-background="new 0 0 500 500" xml:space="preserve" viewBox="54.4 174.95 397.15 107.05">
<path afill="#040404" opacity="1.000000" stroke="none" d=" M72.802818,266.991364   C72.802818,271.792847 72.802818,276.096436 72.802818,280.701294   C66.627884,280.701294 60.710487,280.701294 54.404167,280.701294   C54.404167,245.764709 54.404167,210.729156 54.404167,175.378845   C64.928017,175.378845 75.339622,175.378845 86.252319,175.378845   C88.761505,196.171951 91.268181,216.944290 93.774864,237.716629   C94.341568,237.738220 94.908279,237.759827 95.474991,237.781418   C96.316391,232.912399 97.331490,228.065903 97.966476,223.170120   C99.840103,208.724487 101.586617,194.262177 103.327385,179.799713   C103.717751,176.556503 104.824242,174.850845 108.651764,174.981308   C117.628227,175.287262 126.622215,175.079178 135.784271,175.079178   C135.784271,210.308624 135.784271,245.290833 135.784271,280.640442   C129.933960,280.640442 124.027000,280.640442 117.439499,280.640442   C117.439499,256.686127 117.439499,232.687698 117.439499,208.689270   C116.746048,208.617386 116.052589,208.545517 115.359138,208.473633   C111.873161,232.444977 108.387192,256.416321 104.858101,280.684143   C98.650635,280.684143 92.577286,280.684143 86.309792,280.684143   C82.205917,256.770508 78.128242,233.009552 74.050568,209.248596   C73.600273,209.242661 73.149971,209.236710 72.699669,209.230774   C72.383202,212.360825 71.755981,215.495483 71.802528,218.620132   C72.040283,234.579330 72.451973,250.535950 72.802818,266.991364  z"/>
<path afill="#040404" opacity="1.000000" stroke="none" d=" M386.961884,209.113525   C382.935974,209.300201 382.935974,209.300201 382.710785,217.078705   C376.548035,217.078705 370.316864,217.206528 364.104004,216.927322   C363.266846,216.889694 362.283356,214.896790 361.792542,213.642929   C361.133728,211.959869 361.414612,209.615494 360.327667,208.470596   C359.076233,207.152435 356.743774,206.224136 354.937317,206.310394   C353.870789,206.361313 352.309235,208.586853 352.024445,210.040909   C351.268433,213.900772 352.596497,217.093384 355.977203,219.533600   C361.905975,223.813019 367.598114,228.418915 373.492432,232.747757   C384.658539,240.948318 385.112396,260.983887 380.293243,270.026642   C375.129639,279.715820 361.167755,283.139313 351.090576,281.588104   C341.082703,280.047546 334.410217,274.684509 331.973816,264.570007   C331.705994,263.458313 331.122681,262.422607 330.577820,261.087219   C330.004364,261.742523 329.308380,262.163269 329.249146,262.659943   C327.414520,278.039001 316.908234,281.048401 306.148926,281.877106   C289.671967,283.146271 279.757111,273.932312 279.113892,257.331146   C278.940704,252.861618 279.015381,248.382492 279.132996,243.147064   C279.078339,237.556488 278.866974,232.726608 278.655640,227.896713   C278.825500,222.751343 279.071899,217.607101 279.149048,212.460342   C279.303253,202.173889 284.171265,195.118027 293.807800,191.779083   C301.419067,189.141861 309.138214,189.283249 316.732361,191.833420   C324.261932,194.361877 328.770752,199.685654 329.802460,206.528595   C333.552063,202.468674 336.925110,197.293518 341.629272,194.047424   C350.764832,187.743515 366.619049,188.691574 374.994965,195.155899   C377.369995,196.988907 379.293304,199.407196 382.004883,201.526520   C384.044617,204.035156 385.503235,206.574341 386.961884,209.113525  M361.612000,261.763214   C362.613983,255.890167 361.947998,250.593430 357.245819,246.208542   C348.428040,237.985794 336.313751,233.154465 331.842499,220.446640   C331.460724,220.647263 331.078918,220.847870 330.697144,221.048492   C330.697144,226.522232 330.697144,231.995972 330.697144,237.927765   C328.596619,237.927765 326.963837,237.977188 325.334869,237.919235   C318.019135,237.659027 310.704285,237.373932 303.389587,237.085266   C301.049805,236.992935 298.850616,237.162857 298.971771,240.306686   C299.240417,247.278000 299.295990,254.281647 300.120514,261.190704   C300.330170,262.947723 303.053223,265.601288 304.695007,265.656555   C306.358978,265.712555 309.121796,263.337494 309.613281,261.538239   C310.553009,258.097961 310.545288,254.291229 310.326599,250.673111   C310.118195,247.225067 310.986816,245.717285 314.656158,246.046432   C323.044067,246.798889 331.439697,247.689026 339.848969,247.924973   C351.235016,248.244446 351.241852,248.004089 351.965576,259.467316   C351.976044,259.633423 351.914917,259.835175 351.988312,259.961517   C352.983704,261.675018 353.855530,264.664398 355.037720,264.794373   C357.008453,265.011169 359.180756,263.395355 361.612000,261.763214  M305.385864,227.200272   C306.988678,227.126419 308.591461,227.052567 311.090057,226.937439   C310.608398,220.782852 310.494171,215.002640 309.504883,209.376297   C309.216675,207.737350 306.273438,205.273514 304.828461,205.452927   C302.975281,205.683014 300.234924,207.999985 299.931458,209.770065   C298.971649,215.368820 298.969177,221.131699 298.572174,227.201935   C301.168915,227.201935 302.805573,227.201935 305.385864,227.200272  z"/>
<path afill="#050505" opacity="1.000000" stroke="none" d=" M277.099792,242.040329   C277.099792,254.784698 277.099792,267.529053 277.099792,280.634247   C269.596313,280.634247 262.722961,280.634247 255.317230,280.634247   C255.317230,278.097809 255.315643,275.640259 255.317490,273.182709   C255.331802,254.191788 255.351166,235.200851 255.354523,216.209930   C255.354858,214.378815 255.722168,212.363663 255.088684,210.762497   C254.271500,208.697083 252.926300,205.783218 251.255295,205.345215   C248.281403,204.565720 245.914536,206.786530 245.368683,209.990097   C244.868317,212.926895 244.508286,215.928162 244.501755,218.901947   C244.460373,237.724915 244.541443,256.548126 244.558136,275.371277   C244.559586,277.010284 244.388046,278.649445 244.277527,280.636047   C237.421387,280.636047 230.843628,280.636047 223.705658,280.636047   C223.594513,278.866486 223.360382,276.945282 223.370697,275.025391   C223.479858,254.705399 223.750275,234.384857 223.619965,214.066727   C223.602463,211.338150 222.370224,207.459579 220.371826,206.165787   C217.165970,204.090286 213.581802,206.976654 213.214371,211.829391   C212.699966,218.623611 212.683945,225.464584 212.671997,232.285950   C212.646057,247.104492 212.773865,261.923279 212.784760,276.741974   C212.785706,278.026489 212.386230,279.311249 212.142197,280.779724   C205.602707,280.779724 199.307953,280.779724 192.321777,280.779724   C192.321777,271.647705 192.321777,262.484344 192.321777,253.320984   C191.954819,253.228378 191.587875,253.135757 191.220917,253.043137   C190.771057,253.745270 190.321182,254.447418 189.528992,255.058243   C189.502670,252.960709 189.818680,250.954483 190.565964,248.950211   C191.279556,243.980453 191.561844,239.008759 191.936523,233.574219   C191.996658,226.398026 191.964401,219.684677 191.932159,212.971329   C191.932144,205.879349 191.932144,198.787354 191.932144,191.330750   C198.955948,191.330750 205.495178,191.330750 212.242264,191.330750   C212.479980,193.779007 212.721985,196.271408 212.963989,198.763809   C216.911560,193.578720 221.177460,190.030212 227.835632,190.129303   C234.282608,190.225266 239.368484,192.549316 242.635727,198.651703   C243.791260,197.757935 244.657867,197.294754 245.249207,196.597977   C250.638794,190.247269 257.982117,188.345200 266.152252,191.249786   C271.935364,193.305786 275.817139,200.011322 276.001923,207.675186   C276.157806,214.141342 276.640228,220.599655 276.942657,227.973114   C276.971375,233.269974 277.035583,237.655151 277.099792,242.040329  z"/>
<path afill="#020202" opacity="1.000000" stroke="none" d=" M387.086121,209.406113   C385.503235,206.574341 384.044617,204.035156 382.323730,201.260895   C382.081635,199.943253 382.101776,198.860687 382.570190,197.342773   C384.348480,196.085571 385.678497,195.263733 387.008545,194.441879   C387.304504,190.076157 387.639130,185.712540 387.878693,181.343719   C387.984161,179.420776 387.896423,177.487228 387.896423,175.112961   C393.624634,175.112961 398.850220,175.112961 404.580139,175.516342   C406.022064,176.613495 406.959656,177.307266 407.897247,178.001038   C407.970459,183.004593 408.043671,188.008163 407.851410,193.671936   C408.115448,196.034149 408.644958,197.736130 409.295044,199.825790   C411.320465,198.928177 412.972931,198.302368 414.461029,197.404251   C414.651337,197.289383 413.985474,195.755936 413.716278,194.879654   C414.873108,191.558701 417.265625,190.733765 420.618591,190.909790   C425.574738,191.169968 430.554657,190.977020 435.846985,190.977020   C435.846985,193.270370 435.846985,195.343994 435.846985,198.356705   C440.717041,193.954514 444.547821,188.969086 451.549011,190.230911   C451.549011,195.941025 451.549011,201.545166 451.549011,207.417953   C448.235535,207.936707 445.028473,208.742538 441.794067,208.873795   C436.971588,209.069489 435.872650,211.436935 435.920776,215.930557   C436.132690,235.722122 436.007294,255.517319 436.004211,275.311188   C436.003937,276.953369 436.004150,278.595551 436.004150,280.987366   C428.774078,280.987366 421.859467,280.987366 414.580322,280.680389   C414.114227,280.005188 414.012695,279.636993 413.911133,279.268799   C413.606781,279.787231 413.302429,280.305664 412.998108,280.824097   C409.221222,281.207397 405.445618,281.897125 401.667145,281.913269   C392.448395,281.952667 387.971405,277.444946 387.931305,268.184326   C387.857361,251.097504 387.918396,234.010086 388.339111,216.423981   C389.400696,215.272568 390.046326,214.620102 390.691956,213.967621   C389.862122,213.310913 389.032288,212.654190 388.202393,211.997467   C387.871735,211.231216 387.541046,210.464951 387.086121,209.406113  M414.710022,266.586792   C414.798187,249.228439 414.895660,231.870148 414.969086,214.511719   C414.992188,209.049606 414.002197,208.410965 408.199921,210.166901   C408.055145,211.733734 407.904419,213.365036 407.066376,214.983353   C405.685181,215.125275 404.303955,215.267212 402.922760,215.409134   C402.967010,215.940445 403.011230,216.471771 403.055481,217.003098   C404.634857,217.003098 406.214233,217.003098 407.978424,217.923767   C407.985535,232.188034 408.070557,246.452988 407.947021,260.716125   C407.914612,264.457367 409.001312,266.826630 412.996826,268.000122   C413.078522,269.851471 413.160187,271.702789 413.241882,273.554138   C413.955292,273.433563 414.668701,273.313019 415.382141,273.192444   C414.925171,271.167053 414.468201,269.141632 414.710022,266.586792  z"/>
<path afill="#040403" opacity="1.000000" stroke="none" d=" M190.134674,248.948257   C189.818680,250.954483 189.502670,252.960709 189.258072,255.352036   C188.820374,259.666016 188.760513,263.719269 187.713867,267.499298   C185.086426,276.988373 177.627350,280.472809 168.683426,281.653046   C152.893021,283.736755 139.396133,276.359497 139.784714,257.710052   C140.106598,242.259903 139.845886,226.797699 139.849808,211.340836   C139.852249,201.717789 144.124130,195.127975 153.116013,192.024017   C160.981064,189.309036 169.028366,189.234024 177.052231,191.882080   C186.566925,195.022171 188.720444,202.743484 189.637329,212.164185   C190.225784,219.966873 190.680283,226.999817 191.047989,234.448578   C189.593781,235.604813 188.241974,236.950012 186.856323,236.985809   C178.874084,237.192017 170.880371,236.970932 162.899780,237.206940   C161.589600,237.245667 159.223740,238.820694 159.214249,239.705780   C159.139450,246.660614 159.450745,253.623688 159.789734,260.577087   C159.950272,263.869659 161.309967,266.727142 165.090637,266.490845   C169.141739,266.237671 169.874710,262.908691 169.952454,259.575745   C170.052322,255.294815 169.976746,251.009766 169.976746,246.181488   C176.271454,246.181488 182.030396,246.072067 187.775497,246.304565   C188.596207,246.337784 189.349945,248.026001 190.134674,248.948257  M161.738251,206.203003   C156.556000,212.559708 160.113876,219.860046 158.922272,226.941544   C162.905029,226.941544 166.285095,226.941544 169.954102,226.941544   C169.954102,221.570465 170.201508,216.442322 169.884445,211.349304   C169.568024,206.266586 167.095337,204.666687 161.738251,206.203003  z"/>
<path afill="#040404" opacity="1.000000" stroke="none" d=" M413.354065,194.858459   C413.985474,195.755936 414.651337,197.289383 414.461029,197.404251   C412.972931,198.302368 411.320465,198.928177 409.295044,199.825790   C408.644958,197.736130 408.115448,196.034149 407.861664,194.134918   C409.755524,194.237534 411.373718,194.537399 413.354065,194.858459  z"/>
<path afill="#040404" opacity="1.000000" stroke="none" d=" M388.098694,212.388885   C389.032288,212.654190 389.862122,213.310913 390.691956,213.967621   C390.046326,214.620102 389.400696,215.272568 388.429291,215.963043   C388.067322,214.927475 388.031128,213.853882 388.098694,212.388885  z"/>
<path afill="#040404" opacity="1.000000" stroke="none" d=" M386.652985,194.408676   C385.678497,195.263733 384.348480,196.085571 382.704102,196.957703   C383.692291,196.130463 384.994873,195.252960 386.652985,194.408676  z"/>
<path afill="#040404" opacity="1.000000" stroke="none" d=" M407.990662,177.624725   C406.959656,177.307266 406.022064,176.613495 405.039795,175.607742   C406.024750,175.946640 407.054443,176.597519 407.990662,177.624725  z"/>
<path afill="#040404" opacity="1.000000" stroke="none" d=" M413.254303,280.893036   C413.302429,280.305664 413.606781,279.787231 413.911133,279.268799   C414.012695,279.636993 414.114227,280.005188 414.119476,280.599060   C413.852295,280.870453 413.681396,280.916229 413.254303,280.893036  z"/>
<path afill="#040404" opacity="1.000000" stroke="none" d=" M412.997437,267.588501   C413.164307,267.123444 413.330566,267.070007 413.754028,267.066376   C414.468201,269.141632 414.925171,271.167053 415.382141,273.192444   C414.668701,273.313019 413.955292,273.433563 413.241882,273.554138   C413.160187,271.702789 413.078522,269.851471 412.997437,267.588501  z"/>
<path afill="#040404" opacity="1.000000" stroke="none" d=" M407.410034,214.989838   C407.813690,215.442963 407.873688,215.889603 407.863647,216.669678   C406.214233,217.003098 404.634857,217.003098 403.055481,217.003098   C403.011230,216.471771 402.967010,215.940445 402.922760,215.409134   C404.303955,215.267212 405.685181,215.125275 407.410034,214.989838  z"/>
</svg>